<svg id="eIsiM4vFUt81" xmlns="http://www.w3.org/2000/svg" xmlns:xlink="http://www.w3.org/1999/xlink" viewBox="0 100 1278.2 800" shape-rendering="geometricPrecision" text-rendering="geometricPrecision"><defs><linearGradient id="eIsiM4vFUt82-fill" x1="0.093383" y1="0.291179" x2="0.641011" y2="0.55645" spreadMethod="pad" gradientUnits="objectBoundingBox"><stop id="eIsiM4vFUt82-fill-0" offset="0%" stop-color="rgb(0,198,255)"/><stop id="eIsiM4vFUt82-fill-1" offset="100%" stop-color="rgb(0,114,255)"/></linearGradient></defs><path id="eIsiM4vFUt82" d="M1061.77988,648.38879C1051.96989,648.38879,1044.827,646.08978,1040.35119,641.49175C1035.87538,636.89372,1033.66814,629.55578,1033.72945,619.47791L1033.72945,600.97872C1033.72945,590.90085,1035.96735,583.56291,1040.44316,578.96488C1044.91897,574.36685,1052.06186,572.12453,1061.87185,572.2379L1075.06015,572.2379C1082.93266,572.2379,1088.86771,573.60471,1092.86528,576.33833C1097.00078,579.31302,1099.56692,584.0833,1099.81811,589.2632C1099.97815,590.22895,1099.70047,591.21695,1099.06397,591.94643C1098.34635,592.59881,1097.40925,592.93779,1096.45206,592.89123C1095.58833,592.95719,1094.73832,592.6409,1094.11606,592.02201C1093.5378,591.33506,1093.17268,590.48618,1093.06762,589.58443C1092.8624,586.24546,1091.05659,583.22913,1088.24846,581.53473C1085.50167,579.96006,1081.10557,579.17273,1075.06016,579.17273L1061.87186,579.17273C1053.99935,579.07195,1048.48123,580.62772,1045.31751,583.84004C1042.15379,587.05236,1040.55967,592.76525,1040.53514,600.97872L1040.53514,619.47791C1040.53514,627.578,1042.12926,633.2468,1045.31751,636.48431C1048.51802,639.77221,1054.05453,641.39727,1061.87186,641.39727L1075.06016,641.39727C1081.11783,641.39727,1085.51393,640.61624,1088.24846,639.05417C1091.05709,637.35119,1092.86197,634.32932,1093.06762,630.98558C1093.15371,630.06737,1093.52075,629.20079,1094.11606,628.5102C1094.75459,627.92396,1095.59819,627.63053,1096.45206,627.69767C1097.41189,627.63197,1098.35596,627.97347,1099.06397,628.64247C1099.7054,629.36914,1099.98378,630.35963,1099.81811,631.3257C1099.54494,636.48887,1096.9825,641.23835,1092.86528,644.21277C1088.86771,646.95899,1082.93267,648.3321,1075.06015,648.3321L1061.77988,648.38879ZM130.35853,594.90511L308.86371,311.22425C325.46183,284.84648,360.30066,276.91851,386.67843,293.51663C388.27047,294.51842,389.7953,295.58665,391.25159,296.71546C397.34956,300.82771,402.76356,306.19355,407.08031,312.72603L593.90768,595.44932C611.27963,621.73805,604.30318,656.96547,578.32535,674.13197C552.34752,691.29847,517.20558,683.90345,499.83364,657.61472L358.66668,443.9887L225.88088,655.01221C209.28276,681.38998,174.44393,689.31795,148.06616,672.71983C121.68839,656.12171,113.76042,621.28288,130.35854,594.90511L130.35853,594.90511ZM669.27616,572.2379C670.20644,572.10248,671.14441,572.42574,671.80698,573.11012C672.46955,573.7945,672.7791,574.75983,672.64221,575.71476L672.64221,644.93082C672.51161,646.7467,671.03939,648.15149,669.26696,648.15149C667.49453,648.15149,666.02231,646.74669,665.89171,644.93082L665.89171,635.35055C660.98672,644.04271,651.50169,648.38879,637.43662,648.38879L632.93016,648.38879C623.12017,648.38879,615.97728,646.08978,611.50147,641.49175C607.02566,636.89372,604.78776,629.55578,604.78776,619.47791L604.78776,575.71476C604.69427,574.41486,605.31636,573.17044,606.39925,572.49117C607.48213,571.8119,608.84389,571.8119,609.92677,572.49117C611.00965,573.17044,611.63175,574.41487,611.53826,575.71476L611.53826,619.47791C611.53826,627.578,613.13851,633.2468,616.33902,636.48431C619.52113,639.77221,625.05765,641.39727,632.89337,641.39727L637.39983,641.39727C646.3024,641.39727,653.13873,639.8415,657.90883,636.72996C662.72466,633.54324,665.69836,628.11936,665.85492,622.23672L665.85492,575.71476C665.71361,574.74848,666.02984,573.77095,666.70603,573.08376C667.38222,572.39657,668.33713,572.0823,669.27615,572.2379L669.27616,572.2379ZM731.50213,648.38879C721.85156,648.38879,714.83128,646.13387,710.44131,641.62402C706.05134,637.11417,703.85022,629.95259,703.83796,620.13926L703.83796,579.17272L693.72141,579.17272C692.45608,579.26873,691.24476,578.62964,690.58356,577.5172C689.92236,576.40476,689.92236,575.00585,690.58356,573.89341C691.24476,572.78097,692.45608,572.14188,693.72141,572.23789L703.83796,572.23789L703.83796,552.51046C703.84117,550.59258,705.3555,549.03958,707.22241,549.03958C709.08932,549.03958,710.60365,550.59258,710.60686,552.51046L710.60686,572.1623L731.33659,572.1623C732.60192,572.06629,733.81324,572.70538,734.47444,573.81782C735.13564,574.93026,735.13564,576.32917,734.47444,577.44161C733.81324,578.55405,732.60192,579.19314,731.33659,579.09713L710.60686,579.09713L710.60686,620.06367C710.60686,627.99999,712.13354,633.53652,715.22369,636.67326C718.31384,639.81,723.72159,641.37836,731.50214,641.37836C732.52432,641.24194,733.55324,641.57355,734.31638,642.28537C734.8349,643.03233,735.08813,643.9395,735.03374,644.85523C735.03374,647.21093,733.85654,648.38878,731.50214,648.38878L731.50213,648.38879ZM776.05174,648.38879C766.24175,648.38879,759.09886,646.08978,754.62305,641.49175C750.14724,636.89372,747.90934,629.61246,747.90934,619.64797L747.90934,601.14878C747.90934,590.95753,750.14724,583.5629,754.62305,578.96487C759.09886,574.36684,766.24175,572.12452,776.05174,572.23789L789.22165,572.23789C799.03164,572.23789,806.17453,574.5369,810.65034,579.13493C815.12615,583.73296,817.36405,591.0709,817.36405,601.14877L817.36405,619.47789C817.36405,629.55576,815.12615,636.8937,810.65034,641.49173C806.17453,646.08976,799.03164,648.38877,789.22165,648.38877L776.05174,648.38877L776.05174,648.38879ZM759.44221,636.541C762.62432,639.8289,768.16084,641.45396,775.99656,641.45396L789.16647,641.45396C797.05738,641.45396,802.59389,639.8289,805.72082,636.541C808.84775,633.2531,810.50319,627.58429,810.50319,619.5346L810.50319,601.20548C810.50319,593.11799,808.90907,587.44919,805.72082,584.19908C802.53257,580.94897,797.01446,579.31131,789.16647,579.28612L775.99656,579.28612C771.70619,579.06648,767.41764,579.75467,763.39686,581.30799C760.35269,582.63682,757.93158,585.13082,756.64636,588.26172C755.12814,592.41182,754.43393,596.83214,754.60466,601.26217L754.65984,619.64797C754.65984,627.64728,756.25396,633.27829,759.44221,636.541ZM871.23927,648.38879C861.42928,648.38879,854.28639,646.08978,849.81058,641.49175C845.33477,636.89372,843.09687,629.55578,843.09687,619.47791L843.09687,601.14879C843.09687,591.07092,845.33477,583.73298,849.81058,579.13495C854.28639,574.53692,861.42928,572.23791,871.23927,572.23791L905.80108,572.23791L905.80108,537.88497C905.80429,535.96709,907.31862,534.41409,909.18553,534.41409C911.05244,534.41409,912.56677,535.96709,912.56998,537.88497L912.56998,644.93083C912.56677,646.84871,911.05244,648.40171,909.18553,648.40171C907.31862,648.40171,905.80429,646.84871,905.80108,644.93083L905.80108,635.84185C903.49822,640.06946,899.89479,643.39246,895.55577,645.28985C889.7653,647.63197,883.5644,648.71298,877.34598,648.46438L871.23926,648.3888L871.23927,648.38879ZM871.23927,641.45396L877.38277,641.45396C886.17497,641.45396,893.11554,639.95488,898.20447,636.95671C903.07633,634.34667,906.04828,629.08651,905.83787,623.44607L905.83787,579.17273L871.23927,579.17273C863.35449,579.17273,857.83637,580.81038,854.68492,584.08569C851.53347,587.361,849.93934,593.0298,849.90255,601.09209L849.90255,619.42121C849.90255,627.5213,851.49667,633.1901,854.68492,636.42761C857.81185,639.82889,863.34837,641.45395,871.23927,641.45395L871.23927,641.45396ZM966.59235,648.38879C956.78236,648.38879,949.63947,646.08978,945.16366,641.49175C940.68785,636.89372,938.44995,629.61246,938.44995,619.64797L938.44995,601.14878C938.44995,590.95753,940.68785,583.5629,945.16366,578.96487C949.63947,574.36684,956.78236,572.12452,966.59235,572.23789L979.78065,572.23789C989.59064,572.23789,996.7274,574.5369,1001.19095,579.13493C1005.6545,583.73296,1007.91693,591.0709,1007.97824,601.14877L1007.97824,619.47789C1007.97824,629.55576,1005.74034,636.8937,1001.26453,641.49173C996.78872,646.08976,989.65196,648.38877,979.85423,648.38877L966.59235,648.38877L966.59235,648.38879ZM945.20045,619.64797C945.20045,627.64728,946.79457,633.27829,949.98282,636.541C953.16493,639.8289,958.70145,641.45396,966.53717,641.45396L979.72547,641.45396C987.59798,641.45396,993.1345,639.8289,996.27982,636.541C999.42514,633.2531,1001.06219,627.58429,1001.06219,619.5346L1001.06219,601.20548C1001.06219,593.11799,999.48033,587.43029,996.27982,584.19908C993.07931,580.96787,987.56119,579.28612,979.72547,579.28612L966.59235,579.28612C962.30798,579.06639,958.02541,579.75461,954.01104,581.30799C950.95906,582.62492,948.53416,585.12282,947.26054,588.26172C945.72629,592.40782,945.0255,596.83023,945.20044,601.26217L945.20044,619.64798L945.20045,619.64797Z" transform="matrix(1.244488 0 0 1.217548 -121.000921 -76.432922)" fill="url(#eIsiM4vFUt82-fill)" stroke="none" stroke-width="1"/></svg>