<svg width="1278.2" height="1026" xmlns="http://www.w3.org/2000/svg" data-name="Layer 1">

 <title>Autodoc</title>
 <g>
  <title>Layer 1</title>
  <rect transform="rotate(32.18 237.203 -155.499)" id="svg_2" fill="#fff" ry="56.43" rx="56.43" height="448.03" width="112.86" y="143.91086" x="548.04354" class="cls-1"/>
  <rect transform="rotate(147.82 1189.36 634.601)" id="svg_3" fill="#fff" ry="56.43" rx="56.43" height="448.03" width="112.86" y="934.01088" x="1680.27355" class="cls-1"/>
  <g stroke="null" id="svg_11">
   <path stroke="null" id="svg_5" fill="#fff" d="m669.27616,572.2379a2.97978,3.06115 0 0 1 3.36605,3.47686l0,69.21606a3.38445,3.47686 0 0 1 -6.7505,0l0,-9.58027q-7.35749,13.03824 -28.45509,13.03824l-4.50646,0q-14.71498,0 -21.42869,-6.89704t-6.71371,-22.01384l0,-43.76315a3.38445,3.47686 0 1 1 6.7505,0l0,43.76315q0,12.15013 4.80076,17.0064c3.18211,3.2879 8.71863,4.91296 16.55435,4.91296l4.50646,0q13.35385,0 20.509,-4.66731a17.34528,17.81893 0 0 0 7.94609,-14.49324l0,-46.52196a2.97978,3.06115 0 0 1 3.42123,-3.47686z" class="cls-1"/>
   <path stroke="null" id="svg_6" fill="#fff" d="m731.50213,648.38879q-14.47586,0 -21.06082,-6.76477t-6.60335,-21.48476l0,-40.96654l-10.11655,0a3.38445,3.47686 0 1 1 0,-6.93483l10.11655,0l0,-19.72743a3.38445,3.47686 0 0 1 6.76889,0l0,19.65184l20.72973,0a3.38445,3.47686 0 1 1 0,6.93483l-20.72973,0l0,40.96654c0,7.93632 1.52668,13.47285 4.61683,16.60959s8.4979,4.7051 16.27845,4.7051a3.5132,3.60914 0 0 1 2.81424,0.90701a3.89947,4.00595 0 0 1 0.71736,2.56986q0,3.53355 -3.5316,3.53355z" class="cls-1"/>
   <path stroke="null" id="svg_7" fill="#fff" d="m776.05174,648.38879q-14.71498,0 -21.42869,-6.89704t-6.71371,-21.84378l0,-18.49919q0,-15.28687 6.71371,-22.18391t21.42869,-6.72698l13.16991,0q14.71498,0 21.42869,6.89704t6.71371,22.01384l0,18.32912q0,15.1168 -6.71371,22.01384t-21.42869,6.89704l-13.16991,0zm-21.3919,-28.74082q0,11.99896 4.78237,16.89303c3.18211,3.2879 8.71863,4.91296 16.55435,4.91296l13.16991,0c7.89091,0 13.42742,-1.62506 16.55435,-4.91296s4.78237,-8.95671 4.78237,-17.0064l0,-18.32912q0,-12.13123 -4.78237,-17.0064t-16.55435,-4.91296l-13.16991,0a31.3613,32.21769 0 0 0 -12.5997,2.02187a12.72846,13.07603 0 0 0 -6.7505,6.95373a32.33617,33.21917 0 0 0 -2.0417,13.00045l0.05518,18.38581z" class="cls-1"/>
   <path stroke="null" id="svg_8" fill="#fff" d="m871.23927,648.38879q-14.71498,0 -21.42869,-6.89704t-6.71371,-22.01384l0,-18.32912q0,-15.1168 6.71371,-22.01384t21.42869,-6.89704l34.56181,0l0,-34.35294a3.38445,3.47686 0 0 1 6.76889,0l0,107.04586a3.38445,3.47686 0 0 1 -6.76889,0l0,-9.08898a21.29994,21.88157 0 0 1 -10.24531,9.448a44.93587,46.16294 0 0 1 -18.20979,3.17453l-6.10672,-0.07558zm0,-6.93483l6.1435,0q13.1883,0 20.8217,-4.49725a14.21835,14.60661 0 0 0 7.6334,-13.51064l0,-44.27334l-34.5986,0q-11.82717,0 -16.55435,4.91296t-4.78237,17.0064l0,18.32912q0,12.15013 4.78237,17.0064c3.12693,3.40128 8.66345,5.02634 16.55435,5.02634z" class="cls-1"/>
   <path stroke="null" id="svg_9" fill="#fff" d="m966.59235,648.38879q-14.71498,0 -21.42869,-6.89704t-6.71371,-21.84378l0,-18.49919q0,-15.28687 6.71371,-22.18391t21.42869,-6.72698l13.1883,0q14.71498,0 21.4103,6.89704t6.78729,22.01384l0,18.32912q0,15.1168 -6.71371,22.01384t-21.4103,6.89704l-13.26188,0zm-21.3919,-28.74082q0,11.99896 4.78237,16.89303c3.18211,3.2879 8.71863,4.91296 16.55435,4.91296l13.1883,0c7.87251,0 13.40903,-1.62506 16.55435,-4.91296s4.78237,-8.95671 4.78237,-17.0064l0,-18.32912c0,-8.08749 -1.58186,-13.77519 -4.78237,-17.0064s-8.71863,-4.91296 -16.55435,-4.91296l-13.13312,0a31.26933,32.12321 0 0 0 -12.58131,2.02187a12.5997,12.94376 0 0 0 -6.7505,6.95373a31.9683,32.84125 0 0 0 -2.0601,13.00045l0,18.38581z" class="cls-1"/>
   <path stroke="null" id="svg_10" fill="#fff" d="m1061.77988,648.38879q-14.71498,0 -21.42869,-6.89704t-6.62174,-22.01384l0,-18.49919q0,-15.1168 6.71371,-22.01384t21.42869,-6.72698l13.1883,0q11.80877,0 17.80513,4.10043a16.35202,16.79855 0 0 1 6.95283,12.92487a3.12693,3.21232 0 0 1 -0.75414,2.68323a3.67875,3.7792 0 0 1 -2.61191,0.9448a3.03496,3.11784 0 0 1 -2.336,-0.86922a4.43289,4.55394 0 0 1 -1.04844,-2.43758a9.80386,10.07157 0 0 0 -4.81916,-8.0497q-4.12019,-2.362 -13.1883,-2.362l-13.1883,0q-11.80877,-0.15117 -16.55435,4.66731t-4.78237,17.13868l0,18.49919q0,12.15013 4.78237,17.0064c3.20051,3.2879 8.73702,4.91296 16.55435,4.91296l13.1883,0q9.0865,0 13.1883,-2.3431a9.84064,10.10936 0 0 0 4.81916,-8.06859a4.24895,4.36498 0 0 1 1.04844,-2.47538a3.14533,3.23122 0 0 1 2.336,-0.81253a3.5132,3.60914 0 0 1 2.61191,0.9448a3.09015,3.17453 0 0 1 0.75414,2.68323a16.4256,16.87413 0 0 1 -6.95283,12.88707q-5.99635,4.11933 -17.80513,4.11933l-13.28027,0.05669z" class="cls-1"/>
  </g>
 </g>
</svg>