<?xml version="1.0" standalone="no"?>
<!DOCTYPE svg PUBLIC "-//W3C//DTD SVG 20010904//EN"
 "http://www.w3.org/TR/2001/REC-SVG-20010904/DTD/svg10.dtd">
<svg version="1.0" xmlns="http://www.w3.org/2000/svg"
 width="512.000000pt" height="512.000000pt" viewBox="0 0 512.000000 512.000000"
 preserveAspectRatio="xMidYMid meet">

<g transform="translate(0.000000,512.000000) scale(0.100000,-0.100000)"
fill="#000000" stroke="none">
<path d="M1801 3801 c-10 -10 -34 -22 -52 -26 -76 -17 -137 -64 -175 -135 -17
-31 -20 -67 -24 -307 l-5 -272 -34 -23 c-59 -39 -76 -80 -74 -175 3 -145 59
-299 157 -429 86 -115 214 -208 351 -256 l80 -27 6 -118 c4 -65 7 -197 8 -294
1 -206 15 -268 82 -368 182 -273 558 -310 790 -78 65 65 120 166 138 255 7 33
11 199 11 442 l0 389 26 20 c33 26 55 26 85 2 l24 -19 3 -307 3 -307 -26 -34
c-135 -178 -59 -414 151 -469 135 -35 271 31 334 160 57 121 12 284 -99 358
l-41 27 0 294 c0 264 -2 300 -20 358 -66 213 -286 327 -495 257 l-71 -24 13
60 c17 79 16 168 -1 208 -14 36 -79 97 -101 97 -12 0 -15 45 -17 268 -3 265
-3 268 -29 317 -29 58 -92 110 -152 126 -23 6 -50 20 -60 30 -14 15 -32 19
-78 19 -56 0 -64 -3 -95 -34 -28 -28 -34 -41 -34 -78 0 -76 49 -118 139 -118
44 0 52 4 75 32 l25 33 28 -21 c49 -37 52 -51 54 -324 l1 -256 -35 -35 c-37
-37 -57 -90 -57 -150 0 -47 -26 -134 -56 -185 -82 -140 -267 -226 -425 -196
-186 34 -318 174 -341 360 -16 121 -17 124 -67 173 l-48 46 5 259 5 259 32 32
c32 32 65 43 65 23 0 -27 41 -50 90 -50 62 0 105 21 125 60 30 57 10 127 -45
155 -42 22 -125 20 -149 -4z m-149 -901 c4 -19 11 -66 17 -104 14 -99 67 -201
145 -279 206 -206 529 -216 744 -21 102 92 165 215 178 351 8 79 16 93 55 93
36 0 42 -12 40 -74 -5 -170 -92 -345 -229 -459 -69 -58 -174 -111 -261 -131
-98 -23 -100 -26 -103 -179 -3 -111 -6 -131 -20 -141 -13 -8 -23 -8 -35 0 -15
9 -19 32 -23 142 -4 99 -9 135 -20 146 -9 9 -50 25 -93 36 -181 46 -336 170
-416 330 -59 122 -90 287 -59 318 7 7 26 12 43 10 25 -3 31 -8 37 -38z m1598
-315 c53 -27 94 -71 121 -130 17 -36 19 -71 19 -332 l0 -293 -35 0 -34 0 -3
293 c-3 291 -3 294 -27 329 -38 54 -84 81 -150 86 -84 6 -145 -28 -182 -100
-18 -34 -19 -64 -19 -405 0 -202 -4 -396 -9 -430 -19 -128 -91 -234 -198 -291
-163 -86 -342 -56 -466 78 -81 87 -100 143 -105 308 l-4 132 35 0 34 0 5 -123
c4 -104 9 -132 30 -178 33 -72 75 -119 140 -155 48 -26 62 -29 143 -29 74 0
98 4 137 23 60 30 120 90 150 150 23 46 23 53 28 472 4 381 7 429 23 465 64
141 229 200 367 130z m-512 -613 l-3 -379 -28 -42 c-68 -102 -192 -119 -284
-38 -20 18 -42 46 -49 64 -16 36 -18 210 -7 437 5 114 9 139 22 143 113 34
268 118 315 171 11 12 23 22 28 22 5 0 8 -158 6 -378z m732 -284 c118 -60 118
-226 0 -285 -24 -13 -58 -23 -75 -23 -17 0 -51 10 -75 23 -50 25 -90 88 -90
142 0 54 40 117 90 143 24 12 58 22 75 22 17 0 51 -10 75 -22z"/>
<path d="M3339 1601 c-17 -18 -29 -40 -29 -56 0 -32 50 -85 80 -85 79 0 119
89 64 144 -36 35 -77 34 -115 -3z"/>
</g>
</svg>
